<?xml version="1.0" encoding="UTF-8"?>
<svg xmlns="http://www.w3.org/2000/svg" width="153" height="30" viewBox="0 0 153 30" fill="none">
  <g clip-path="url(#clip0_3308_7847)">
    <path d="M10.728 10.3605C8.1255 9.81 2.9085 9.3705 2.9085 7.392C2.9085 4.5195 12.339 2.523 17.6715 2.523C21.021 2.523 20.556 0.780001 19.662 0.264001C18.768 -0.251999 14.307 0.160501 13.017 0.313501C9.6255 0.711001 6.876 1.371 4.0785 2.6475C2.223 3.495 -1.2195 6.3 0.439504 8.8125C1.8285 10.9125 4.926 11.3625 7.1895 11.889C9.9765 12.5475 17.55 13.521 17.55 15.789C17.55 17.163 14.22 17.889 11.7 17.9595C8.91551 18.037 6.135 17.6993 3.45 16.9575C2.3715 16.6575 1.05 15.6435 0.624004 16.395C0.163504 17.211 0.954004 17.8245 1.725 18.2505C4.092 19.557 7.425 20.1465 10.425 20.1465C13.5885 20.1465 16.518 20.052 19.137 18.3465C21.015 17.124 20.8815 14.115 18.957 13.0215C16.5675 11.6595 13.6245 10.9695 10.728 10.3605Z" fill="#19A0CC"></path>
    <path d="M82.398 6.423C84.048 4.7895 84.2445 2.5395 82.3365 1.071C80.2845 -0.516001 75.333 0.0809994 74.3295 0.251999C73.0942 0.473899 71.8719 0.762826 70.668 1.1175C69.5235 1.47 68.49 1.8885 68.0895 2.208C67.7145 2.508 67.464 2.823 67.6275 3.258C67.7505 3.588 68.19 3.6915 68.5125 3.729C68.835 3.7665 69.5745 3.7065 70.449 3.492C70.4205 3.7155 70.3845 4.0815 70.3365 4.584C70.2885 5.0865 70.233 5.6685 70.164 6.315C70.095 6.9615 70.029 7.6365 69.9645 8.349C69.9 9.0615 69.897 9.0255 69.843 9.63C69.789 10.2345 69.1695 18.5295 69.135 18.9615C69.0285 20.3595 71.5155 20.6805 71.649 19.0125C71.691 18.4695 72.312 10.6125 72.3915 9.774C77.1765 9.7275 81.288 7.5195 82.398 6.423ZM72.558 7.719C72.558 7.719 72.951 2.8515 72.948 2.8725C74.3801 2.59773 75.8279 2.41237 77.283 2.3175C80.4645 2.1585 81.2175 3.7995 80.493 4.767C79.4145 6.2115 76.1325 7.65 72.558 7.719Z" fill="#19A0CC"></path>
    <path d="M66.2115 15.9885C65.52 15.624 65.4495 16.8045 64.932 17.445C64.3635 18.147 62.901 18.5055 62.1945 17.418C61.9733 17.063 61.8207 16.6697 61.7445 16.2585C61.6675 15.7998 61.6394 15.3342 61.6605 14.8695C61.6605 14.382 61.6935 13.9695 61.7325 13.6245C61.7685 13.3575 61.8135 13.005 61.8615 12.5655C61.9095 12.126 61.9605 11.655 62.019 11.139C62.4555 11.1015 63.957 10.989 64.1685 10.9635C64.551 10.9245 65.298 10.692 65.3055 9.882C65.3475 9.489 65.112 9.0765 64.3725 9.0645C64.155 9.0645 62.856 9.0435 62.2485 9.081C62.3235 8.631 62.5185 7.3485 62.559 7.05C62.754 5.6805 62.658 5.022 61.4775 4.905C60.2445 4.7865 59.877 5.5335 59.7615 6.3555C59.733 6.5535 59.529 8.9055 59.487 9.165L57.837 9.2235C57.5379 9.2361 57.2436 9.3032 56.9685 9.4215C56.76 9.50251 56.5676 9.61982 56.4 9.768C56.2891 9.86626 56.2097 9.99518 56.172 10.1385C56.1222 10.2666 56.0929 10.4018 56.085 10.539C56.0843 10.6193 56.1005 10.6989 56.1326 10.7725C56.1646 10.8462 56.2118 10.9123 56.271 10.9665C56.3792 11.0441 56.5 11.1024 56.628 11.139C56.9688 11.1872 57.3131 11.2057 57.657 11.1945H59.3145C59.277 11.865 59.2365 12.5355 59.2005 13.212C59.1705 13.758 59.0505 14.262 58.3845 14.616C58.032 14.7687 57.6462 14.8286 57.264 14.79C56.847 14.7435 56.355 14.7135 55.356 13.704C54.357 12.6945 52.743 12.15 50.988 12.3645C49.548 12.5415 48.3165 13.2 47.5215 14.1C47.1966 14.4559 46.7757 14.7101 46.3095 14.832C45.8187 14.975 45.2964 14.9682 44.8095 14.8125C44.4258 14.6885 44.0755 14.4787 43.785 14.199C43.764 14.1795 43.644 14.058 43.485 13.9185C42.528 12.7785 40.8 12.135 38.9265 12.3645C36.759 12.6285 35.1015 13.9395 34.626 15.615C34.395 16.428 34.3545 16.755 34.0845 17.2875C33.3795 18.6825 30.864 19.02 30.6345 16.9995C30.5835 16.5495 30.699 14.433 30.705 14.214C30.7635 11.8455 29.1105 11.964 28.8015 11.9745C27.708 12.0345 26.64 13.2885 26.1765 13.827C25.9875 14.0445 25.6875 14.229 25.7025 13.9545C25.803 12.273 26.3655 6.9855 26.4105 6.4845C26.61 4.3845 23.601 4.3965 23.436 5.8845C23.295 7.1745 23.1825 8.2845 23.0625 9.4845C22.9305 10.7745 22.3575 17.7045 22.3755 18.363C22.428 19.9665 23.556 20.184 24.0255 20.1525C24.462 20.127 24.756 19.8675 25.0425 19.572C25.515 19.089 26.2425 17.3925 26.4105 17.0805C26.5298 16.8055 26.6755 16.5428 26.8455 16.296C26.9043 16.2099 26.9818 16.1382 27.0722 16.0862C27.1625 16.0343 27.2635 16.0034 27.3675 15.996C27.618 15.996 27.7545 16.122 27.864 16.5165C29.253 21.4485 33.3645 20.607 35.0145 18.1755C36.1545 19.878 38.238 20.3085 39.864 20.1135C41.49 19.9185 42.843 19.074 43.59 18.051C43.9373 17.5723 44.1521 17.0103 44.2125 16.422C44.916 16.6125 46.032 16.551 46.6125 16.272C46.5724 16.4558 46.5653 16.6452 46.5915 16.8315C46.8465 18.9705 49.245 20.4315 51.93 20.1075C53.9775 19.8525 56.016 18.546 56.289 16.416C57.2985 16.6335 58.5735 16.4775 59.2455 15.7245C59.2013 16.6422 59.4116 17.5542 59.853 18.36C60.117 18.8595 60.531 19.41 61.0635 19.71C61.5968 20.0475 62.2193 20.2163 62.85 20.1945C63.445 20.2082 64.034 20.0742 64.5645 19.8045C65.0217 19.5811 65.4199 19.2532 65.727 18.8475C66.312 18.0615 66.8535 16.32 66.2115 15.9885ZM39.6105 17.9805C38.4315 18.123 37.3875 17.4795 37.269 16.545C37.1505 15.6105 38.019 14.733 39.192 14.595C40.365 14.457 41.415 15.0915 41.5305 16.029C41.646 16.9665 40.7835 17.835 39.6105 17.9805ZM51.672 17.9805C50.4945 18.123 49.4475 17.4795 49.3335 16.545C49.2195 15.6105 50.0835 14.733 51.2535 14.595C52.4235 14.457 53.475 15.0915 53.589 16.029C53.703 16.9665 52.8465 17.835 51.672 17.9805Z" fill="#19A0CC"></path>
    <path d="M116.591 15.7275C116.051 15.4725 115.815 16.443 115.613 16.887C115.464 17.2168 115.252 17.514 114.988 17.7612C114.724 18.0084 114.414 18.2007 114.075 18.327C113.606 18.5055 112.442 18.5385 112.053 18.0705C111.73 17.667 111.38 17.2871 111.003 16.9335L111.168 15.18C114.918 11.139 116.258 7.4775 116.418 6.9675C116.813 5.724 117.198 3.8985 116.321 2.9655C115.143 1.716 113.376 1.8135 111.848 2.757C110.87 3.3675 110.111 4.515 109.821 6.3C109.532 8.085 109.103 12.1755 108.932 13.5735C108.915 13.6875 108.906 13.7985 108.89 13.911C108.87 14.1434 108.78 14.3643 108.633 14.545C108.485 14.7257 108.287 14.8576 108.063 14.9235C107.617 15.0518 107.144 15.0518 106.698 14.9235C106.266 14.802 105.812 14.454 105.057 13.734C104.063 12.747 102.452 12.2055 100.707 12.42C99.15 12.6 97.827 13.35 97.05 14.3775C97.0435 14.384 97.0375 14.3911 97.032 14.3985C96.8286 14.6198 96.58 14.7948 96.3031 14.9118C96.0262 15.0288 95.7275 15.0849 95.427 15.0765C94.794 15.0615 94.3905 15.024 93.405 13.9155C92.4195 12.807 90.7245 12.1755 88.8705 12.405C86.4105 12.705 84.57 14.4105 84.4665 16.3425C84.45 16.6515 84.408 17.199 84.231 17.5635C84.0945 17.847 83.631 18.5115 82.8885 18.5115C82.2795 18.5115 81.2955 17.814 81.3285 15.9315C81.3285 15.6585 81.3435 14.664 81.3435 14.241C81.3435 13.773 81.2355 13.4505 80.9355 13.191C80.7855 13.0665 80.1015 12.801 79.9395 12.75C79.0519 12.4752 78.1218 12.3639 77.1945 12.4215C76.7445 12.4575 75.951 12.6195 75.882 13.083C75.6076 14.9025 74.971 16.6484 74.01 18.2175C73.3965 19.2105 74.355 19.809 75.2475 18.6015C75.8325 17.8095 76.767 16.2195 77.172 15.0645C77.5745 15.015 77.9828 15.0482 78.372 15.162C78.5565 15.2205 78.822 15.3855 78.834 15.5385C78.8554 15.7939 78.86 16.0505 78.8475 16.3065C78.8434 16.6923 78.8862 17.0771 78.975 17.4525C79.98 21.984 84.5835 19.7475 85.1115 18.396C86.2635 19.896 88.005 20.3715 89.8185 20.1495C91.872 19.899 93.984 18.486 94.1925 16.4205C94.8555 16.6035 95.7975 16.629 96.321 16.1925C96.1035 18.9195 98.979 20.478 101.655 20.1495C103.799 19.887 105.831 18.402 106.022 16.4205C106.908 16.644 107.939 16.614 108.603 16.2375C108.318 19.425 108.087 22.443 108.104 24.2325C108.123 26.3085 108.588 27.7725 109.172 28.62C109.755 29.4675 110.639 30.099 111.837 29.9925C113.543 29.8425 114.278 28.509 114.552 27.855C114.926 26.9685 115.13 24.855 114.834 23.7735C114.716 23.337 114.314 21.7095 113.436 20.151C115.281 19.7385 115.923 19.221 116.336 18.5595C116.967 17.55 117.018 15.9255 116.591 15.7275ZM89.55 18.018C88.3785 18.168 87.3315 17.52 87.216 16.5855C87.1005 15.651 87.966 14.772 89.136 14.6355C90.306 14.499 91.362 15.132 91.4745 16.068C91.587 17.004 90.7305 17.8725 89.55 18.018ZM101.385 18.018C100.212 18.168 99.165 17.52 99.051 16.5855C98.937 15.651 99.801 14.772 100.971 14.6355C102.141 14.499 103.194 15.132 103.31 16.068C103.425 17.004 102.567 17.8725 101.388 18.018H101.385ZM112.086 6.246C112.424 4.8435 114.795 4.389 114.147 6.732C113.477 9.1485 111.276 11.802 111.276 11.802C111.276 11.802 111.642 8.1165 112.089 6.246H112.086ZM112.592 27.057C112.415 27.4035 111.887 27.702 111.501 27.2265C111.116 26.751 110.751 26.073 110.678 24.915C110.559 22.965 110.696 20.9385 110.76 19.14C111.105 19.6335 111.986 21.138 112.224 21.7845C112.608 22.8345 112.878 23.7555 112.932 24.594C113.025 25.9815 112.935 26.3865 112.595 27.057H112.592Z" fill="#19A0CC"></path>
    <path d="M126.239 7.983V2.883C126.239 1.614 127.508 0.0330009 129.089 0.0330009H134.199L131.979 2.253H129.092C128.927 2.26457 128.773 2.33517 128.656 2.45179C128.54 2.5684 128.47 2.72316 128.459 2.8875V5.7645L126.239 7.983Z" fill="#19A0CC"></path>
    <path d="M134.202 20.1945H129.092C127.824 20.1945 126.242 18.9255 126.242 17.3445V12.2445L128.462 14.4645V17.34C128.473 17.5042 128.543 17.6588 128.66 17.7754C128.776 17.8919 128.93 17.9626 129.095 17.9745H131.985L134.202 20.1945Z" fill="#19A0CC"></path>
    <path d="M152.79 12.2325V17.34C152.79 18.609 151.523 20.19 149.94 20.19H144.828L147.047 17.97H149.937C150.101 17.9587 150.256 17.8882 150.373 17.7716C150.489 17.6549 150.559 17.5 150.57 17.3355V14.4525L152.79 12.2325Z" fill="#19A0CC"></path>
    <path d="M144.828 0.0210018H149.937C151.205 0.0210018 152.787 1.2885 152.787 2.871V7.983L150.567 5.7645V2.8755C150.556 2.71094 150.486 2.55583 150.37 2.43909C150.253 2.32235 150.099 2.25195 149.934 2.241H147.047L144.828 0.0210018Z" fill="#19A0CC"></path>
  </g>
  <defs>
    <clipPath id="clip0_3308_7847">
      <rect width="152.79" height="30" fill="white"></rect>
    </clipPath>
  </defs>
</svg>
